HIERARCHY
ROOT Hips
{
  OFFSET 1.44925e-005 102.336 -0.101585
  CHANNELS 6 Xposition Yposition Zposition Zrotation Xrotation Yrotation
  JOINT LeftUpLeg
  {
    OFFSET 8.9458 -8.66707 0.101652
    CHANNELS 3 Zrotation Xrotation Yrotation
    JOINT LeftLeg
    {
      OFFSET 0 -44.4227 1.3727
      CHANNELS 3 Zrotation Xrotation Yrotation
      JOINT LeftFoot
      {
        OFFSET -0.253549 -42.0924 -1.46059
        CHANNELS 3 Zrotation Xrotation Yrotation
        JOINT LeftToes
        {
          OFFSET -0.04 -4.41509 8.4991
          CHANNELS 3 Zrotation Xrotation Yrotation
          End Site
          {
            OFFSET 0.08 -0.047448 9.77979
          }
        }
      }
    }
  }
  JOINT Spine
  {
    OFFSET 0 11.8905 0
    CHANNELS 3 Zrotation Xrotation Yrotation
    JOINT Spine1
    {
      OFFSET 0 25.6574 0.127663
      CHANNELS 3 Zrotation Xrotation Yrotation
      JOINT RightShoulder
      {
        OFFSET -8.99 -0.362252 -0.22
        CHANNELS 3 Zrotation Xrotation Yrotation
        JOINT RightArm
        {
          OFFSET -10.2827 -0.00338 0.322123
          CHANNELS 3 Zrotation Xrotation Yrotation
          JOINT RightForeArm
          {
            OFFSET -26.364 0.099144 -1.42434
            CHANNELS 3 Zrotation Xrotation Yrotation
            JOINT RightHand
            {
              OFFSET -22.0324 0.085362 1.02216
              CHANNELS 3 Zrotation Xrotation Yrotation
              End Site
              {
                OFFSET -13.3284 -0.6 1.50291
              }
            }
          }
        }
      }
      JOINT LeftShoulder1
      {
        OFFSET 8.99 -0.362252 -0.22
        CHANNELS 3 Zrotation Xrotation Yrotation
        JOINT LeftArm
        {
          OFFSET 10.2827 -0.00337999 0.322123
          CHANNELS 3 Zrotation Xrotation Yrotation
          JOINT LeftForeArm
          {
            OFFSET 26.2597 0.099144 -1.42434
            CHANNELS 3 Zrotation Xrotation Yrotation
            JOINT LeftHand
            {
              OFFSET 22.0902 0.085362 1.02216
              CHANNELS 3 Zrotation Xrotation Yrotation
              End Site
              {
                OFFSET 13.419 -0.6 1.50291
              }
            }
          }
        }
      }
      JOINT Head
      {
        OFFSET 0 8.73416 0.011341
        CHANNELS 3 Zrotation Xrotation Yrotation
        End Site
        {
          OFFSET -0.29 12.7742 2.51395
        }
      }
    }
  }
  JOINT RightUpLeg
  {
    OFFSET -8.9458 -8.66707 0.101652
    CHANNELS 3 Zrotation Xrotation Yrotation
    JOINT RightLeg
    {
      OFFSET 0 -44.4227 1.3727
      CHANNELS 3 Zrotation Xrotation Yrotation
      JOINT RightFoot
      {
        OFFSET 0.253549 -42.0924 -1.46059
        CHANNELS 3 Zrotation Xrotation Yrotation
        JOINT RightToes
        {
          OFFSET 0.04 -4.41509 8.4991
          CHANNELS 3 Zrotation Xrotation Yrotation
          End Site
          {
            OFFSET -0.08 -0.137448 9.77979
          }
        }
      }
    }
  }
}
MOTION
Frames:	12
Frame Time:	0.0333333
35.2853 97.322 1.69244 -9.13033 -0.848941 -94.8874 -6.73839 20.3442 4.93548 0.492658 17.4015 16.0369 -4.12498 -26.236 -0.548541 -1.32105e-009 8.75254e-006 -1.48107e-008 -2.68075 15.269 -1.57652 1.38638 -0.186579 -2.16514 37.5676 1.7616 0.0281691 29.3281 -27.5241 -14.1828 9.55437 41.0279 2.77234 -13.0747 9.19587 1.20513 -42.7052 3.37821 -3.36092 -25.5984 -22.3429 -2.43151 9.79488 32.2729 -47.5298 5.82328 9.61819 -0.917488 0.208242 -8.28377 -2.25198 -1.17051 -22.3527 -4.17314 1.20789 16.6944 -16.8854 13.6658 -12.3639 0.36635 0.0462048 0.000530889 0.662642 
30.4555 96.2562 1.30816 -8.95114 -0.974453 -93.8242 -6.39369 22.8818 5.31511 0.827118 18.5164 14.3307 -5.97972 -26.9839 -0.899343 -1.32105e-009 8.75254e-006 -1.48107e-008 -2.39812 14.2865 -1.90942 1.91481 0.287724 -2.5655 37.5359 1.75662 0.0193021 28.3315 -28.5833 -15.721 9.46998 40.6444 2.22079 -13.1573 9.20628 1.06086 -42.6779 3.3757 -3.35995 -25.7623 -23.4882 -2.90826 10.1598 32.137 -48.9892 5.82328 9.61819 -0.917488 -0.0612068 -8.30222 -2.33496 -0.937597 -21.9094 -2.19583 1.69132 14.7072 -18.2406 13.0984 -12.1738 0.32592 0.0462048 0.000530889 0.662642 
25.4771 95.3176 0.897337 -8.43376 -0.177841 -92.8472 -4.98612 24.8018 4.96622 1.15681 20.3465 13.6203 -8.8589 -26.9895 -1.40928 -1.32105e-009 8.75254e-006 -1.48107e-008 -0.715594 13.0781 -2.37426 2.32967 0.627567 -2.91891 37.5796 1.74798 -0.00404049 27.5252 -29.0768 -16.6276 9.4618 40.567 1.85954 -13.2168 9.21466 0.949674 -43.1045 3.4266 -3.39823 -25.5868 -23.9278 -2.58141 10.2117 32.1229 -49.1803 5.82328 9.61819 -0.917488 -0.682599 -8.20053 -2.15205 0.576126 -22.8793 -3.23765 0.94217 18.6821 -17.0725 8.86098 -9.3899 -0.029469 0.0462048 0.000530889 0.662642 
20.3974 94.4069 0.497505 -8.27469 1.38268 -92.515 -2.43728 26.214 4.988 0.942009 23.9879 12.9158 -12.7312 -25.9157 -1.96401 -1.32105e-009 8.75254e-006 -1.48107e-008 2.1569 12.5251 -2.75301 2.44698 0.516602 -2.93831 37.6564 1.74388 -0.0199944 27.0734 -29.4194 -16.233 9.72132 41.0666 0.945911 -13.0166 9.23462 0.864951 -43.8192 3.51774 -3.47218 -25.4045 -24.0005 -1.19113 9.96001 32.244 -48.0946 5.82328 9.61819 -0.917488 -1.43924 -8.17336 -1.52502 3.05994 -24.4805 -5.32105 -0.643275 26.2211 -14.5486 2.81589 -6.02112 -0.207968 0.0462048 0.000530889 0.662642 
15.4075 93.706 0.0301698 -8.58037 3.13984 -92.5248 0.840154 26.0994 6.40184 0.727748 30.8836 10.2956 -15.0498 -21.4998 -1.7694 -1.32105e-009 8.75254e-006 -1.48107e-008 4.59437 12.7421 -2.96912 2.79339 0.105766 -2.82426 37.8005 1.7474 -0.0253341 27.3567 -30.1636 -14.1039 10.1251 42.0564 -0.529954 -12.8688 9.23011 0.986641 -44.388 3.59012 -3.5287 -25.7012 -23.475 0.776646 9.01402 32.1954 -45.512 5.82328 9.61819 -0.917488 -1.79721 -8.3925 -0.629635 5.4354 -25.2063 -4.60131 -1.04939 33.6827 -14.7175 -1.78819 -6.08168 -0.148737 0.0462048 0.000530889 0.662642 
10.8358 93.3854 -0.530468 -8.73944 4.34105 -91.7485 4.55118 22.5305 6.33554 0.802666 41.8097 8.01223 -14.3121 -12.4914 -0.571097 -1.32105e-009 8.75254e-006 -1.48107e-008 6.0312 13.0163 -3.27102 3.55777 -0.194723 -2.88628 38 1.74945 -0.0352781 28.8398 -31.3466 -10.801 10.1378 42.3604 -1.22514 -12.9114 9.20711 1.18679 -44.6394 3.61075 -3.53089 -26.4999 -21.1062 2.08921 7.22401 31.7047 -41.2843 5.82328 9.61819 -0.917488 -1.46233 -8.78593 -0.260677 6.75181 -24.7406 -4.76691 -1.09756 39.0104 -15.1739 -3.32617 -10.1244 -0.252419 0.0462048 0.000530889 0.662642 
6.89798 93.3167 -1.03712 -8.44347 5.18374 -89.7056 7.85968 15.5608 4.04978 1.09188 54.5332 8.13356 -12.9867 -2.73489 0.56846 -1.32105e-009 8.75254e-006 -1.48107e-008 7.72328 13.0063 -3.74004 4.03512 -0.251271 -2.90232 38.0226 1.74578 -0.0455876 31.5635 -32.0689 -7.25543 9.52689 40.6393 0.175486 -12.8118 9.22693 1.04774 -44.8431 3.61798 -3.51425 -27.4243 -16.1937 2.0636 5.21028 30.9166 -36.0494 5.82328 9.61819 -0.917488 -0.786089 -9.17175 -1.14116 7.18844 -23.703 -6.47232 -1.1709 41.8644 -15.5925 -2.26252 -14.7237 -0.358097 0.0462048 0.000530889 0.662642 
3.33617 93.6244 -1.37046 -8.13394 5.78322 -87.4888 9.76057 7.7075 1.77204 1.66187 65.7096 10.2766 -12.2662 1.72017 0.982755 -1.32105e-009 8.75254e-006 -1.48107e-008 10.0858 12.9926 -3.88744 3.59216 -0.272708 -2.36688 37.7306 1.73827 -0.0387189 34.7801 -31.0084 -3.59886 8.97681 37.3518 3.25371 -12.5524 9.28485 0.616459 -45.279 3.65319 -3.51683 -28.1767 -10.2758 1.50399 3.7487 30.3002 -31.1822 5.82328 9.61819 -0.917488 -0.329064 -9.48232 -3.03981 7.40968 -21.9043 -8.26531 -1.20749 42.5647 -15.9899 -0.646193 -17.3382 -0.29514 0.0462048 0.000530889 0.662642 
-0.245988 94.5368 -1.58918 -8.17682 5.75876 -86.4255 9.90038 0.852118 0.823309 2.65128 73.5895 12.288 -10.5385 0.0576749 0.704112 -1.32105e-009 8.75254e-006 -1.48107e-008 11.7889 13.2404 -3.33338 2.38473 -0.450467 -1.2594 37.3454 1.73338 -0.0180974 37.4455 -26.4337 0.533727 8.42862 33.5403 7.26227 -12.6021 9.28927 0.544372 -45.7763 3.69223 -3.51735 -28.9723 -5.97164 1.78852 2.91356 29.9595 -27.6583 5.82328 9.61819 -0.917488 -0.254832 -9.71097 -4.96916 7.42485 -18.7246 -9.02339 -1.19709 41.3265 -16.227 0.110756 -18.6067 -0.235149 0.0462048 0.000530889 0.662642 
-3.81576 95.7165 -1.74069 -8.35299 5.01854 -86.2383 8.67916 -5.15923 0.531554 3.85597 78.0153 12.5581 -8.58702 -4.02935 0.279911 -1.32105e-009 8.75254e-006 -1.48107e-008 12.4644 13.6781 -2.51465 0.922721 -0.721505 -0.0590402 37.0186 1.72845 -0.00217433 38.6882 -17.5063 4.78242 6.9061 28.4577 12.2547 -13.0383 9.21467 1.04388 -45.9994 3.69194 -3.48378 -29.894 -3.89925 3.41859 1.99499 29.1338 -25.2107 5.82328 9.61819 -0.917488 -0.433281 -9.77897 -6.21694 6.94525 -14.7349 -9.24688 -1.1596 38.9367 -16.0871 0.584185 -19.835 -0.189499 0.0462048 0.000530889 0.662642 
-7.31636 96.8242 -1.81094 -8.41582 4.07919 -86.2123 6.79439 -10.7985 -0.0720792 4.34896 79.2875 11.9016 -7.77819 -6.95257 0.0723141 -1.32105e-009 8.75254e-006 -1.48107e-008 12.8929 13.998 -1.87475 -0.604275 -1.04587 0.911307 36.5201 1.71492 0.00841104 38.6701 -8.53275 8.5254 4.6692 22.9986 17.7156 -13.1782 9.1641 1.44976 -46.003 3.66516 -3.43266 -30.51 -3.15135 5.79593 0.375722 27.832 -22.8731 5.82328 9.61819 -0.917488 -0.8107 -9.55796 -6.80482 6.04052 -10.6726 -10.0219 -1.06518 36.077 -15.2219 1.35473 -20.7807 -0.100974 0.0462048 0.000530889 0.662642 
-10.8334 97.8113 -1.82516 -8.46699 3.25314 -86.1817 4.80952 -15.6835 -0.945651 3.65558 77.5662 11.8373 -7.6064 -8.73711 -0.0348637 -1.32105e-009 8.75254e-006 -1.48107e-008 13.2637 14.1667 -1.33287 -2.0311 -1.4187 1.65822 35.7377 1.69436 0.0268036 38.6573 -5.02444 11.5907 3.09739 19.9317 22.9779 -12.6059 9.2058 1.37183 -45.9661 3.64073 -3.39187 -30.494 -4.10631 8.22523 -1.57795 28.0906 -20.1738 5.82328 9.61819 -0.917488 -1.31848 -9.04501 -7.06044 5.09345 -6.56229 -10.7036 -0.438667 32.9662 -14.5923 1.86046 -21.0203 -0.0387467 0.0462048 0.000530889 0.662642 
